<svg xmlns="http://www.w3.org/2000/svg" xmlns:xlink="http://www.w3.org/1999/xlink" width="70" height="70" viewBox="0 0 70 70">
  <defs>
    <style>
      .cls-1 {
        clip-path: url(#clip-logo);
      }

      .cls-2 {
        fill: #fff;
      }
    </style>
    <clipPath id="clip-logo">
      <rect width="70" height="70"/>
    </clipPath>
  </defs>
  <g id="logo" class="cls-1">
    <rect class="cls-2" width="70" height="70"/>
    <path id="Tracé_1" data-name="Tracé 1" d="M-20.752-10.4a1.928,1.928,0,0,0-1.392.288,1.581,1.581,0,0,0-.4,1.232v.016h1.792v1.9h-1.792V0H-24.8V-6.96h-1.136v-1.9H-24.8v-.208a3.2,3.2,0,0,1,.9-2.44,3.762,3.762,0,0,1,2.68-.856q.3,0,.464.016Zm4.4-1.44V0h-2.256V-11.84Zm6.944,2.864a4.915,4.915,0,0,1,2.328.544A3.982,3.982,0,0,1-5.456-6.856a4.788,4.788,0,0,1,.592,2.424,4.744,4.744,0,0,1-.592,2.416A4.05,4.05,0,0,1-7.08-.44,4.857,4.857,0,0,1-9.408.112,4.857,4.857,0,0,1-11.736-.44,4.05,4.05,0,0,1-13.36-2.016a4.744,4.744,0,0,1-.592-2.416,4.788,4.788,0,0,1,.592-2.424,3.982,3.982,0,0,1,1.624-1.576A4.915,4.915,0,0,1-9.408-8.976Zm0,1.952a2.164,2.164,0,0,0-1.6.664,2.63,2.63,0,0,0-.656,1.928A2.63,2.63,0,0,0-11.008-2.5a2.164,2.164,0,0,0,1.6.664,2.164,2.164,0,0,0,1.6-.664,2.63,2.63,0,0,0,.656-1.928A2.63,2.63,0,0,0-7.808-6.36,2.164,2.164,0,0,0-9.408-7.024ZM6.016-8.864V0H3.76V-1.792A2.824,2.824,0,0,1,2.6-.392a3.448,3.448,0,0,1-1.864.5A3.139,3.139,0,0,1-1.712-.9a4.047,4.047,0,0,1-.912-2.816V-8.864h2.24v4.9A2.315,2.315,0,0,0,.16-2.328a1.914,1.914,0,0,0,1.472.584,2.009,2.009,0,0,0,1.552-.624A2.549,2.549,0,0,0,3.76-4.16v-4.7Zm4.672,6.976H15.04V0H8.224V-1.792l4.08-5.2H8.32V-8.864h6.56v1.776Zm14.9-2.88A4.271,4.271,0,0,1,25.5-4h-6.5a2.443,2.443,0,0,0,.64,1.744,2.059,2.059,0,0,0,1.472.56,2.136,2.136,0,0,0,1.3-.384,1.7,1.7,0,0,0,.664-1.04h2.384a3.814,3.814,0,0,1-.752,1.664A3.93,3.93,0,0,1,23.24-.3a4.747,4.747,0,0,1-2.008.416,4.718,4.718,0,0,1-2.3-.552A3.88,3.88,0,0,1,17.36-2.016a4.96,4.96,0,0,1-.56-2.416,5.007,5.007,0,0,1,.56-2.424,3.817,3.817,0,0,1,1.568-1.576,4.774,4.774,0,0,1,2.3-.544,4.67,4.67,0,0,1,2.3.544,3.834,3.834,0,0,1,1.52,1.5A4.342,4.342,0,0,1,25.584-4.768Zm-2.272-.224a1.988,1.988,0,0,0-.568-1.648,2.165,2.165,0,0,0-1.512-.56,2.216,2.216,0,0,0-1.536.56,2.292,2.292,0,0,0-.688,1.648Z" transform="translate(35 41)"/>
  </g>
</svg>
